<svg viewBox="0 0 48 48" xmlns="http://www.w3.org/2000/svg" role="img" aria-label="Advanced">
  <rect width="48" height="48" rx="11" fill="#20242B"/>
  <path fill="#9AA4B2" d="M24 15.5a8.5 8.5 0 1 0 0 17 8.5 8.5 0 0 0 0-17zm0 12.2a3.7 3.7 0 1 1 0-7.4 3.7 3.7 0 0 1 0 7.4z"/>
  <path fill="#9AA4B2" d="M22.2 10h3.6l.5 3.1 3 1.7 2.8-1.4 2.5 2.6-1.5 2.7 1.2 3.2 3 .6v3.6l-3 .6-1.2 3.2 1.5 2.7-2.5 2.6-2.8-1.4-3 1.7-.5 3.1h-3.6l-.5-3.1-3-1.7-2.8 1.4-2.5-2.6 1.5-2.7-1.2-3.2-3-.6v-3.6l3-.6 1.2-3.2-1.5-2.7 2.5-2.6 2.8 1.4 3-1.7.5-3.1z" opacity="0"/>
</svg>
