<svg viewBox="0 0 48 48" xmlns="http://www.w3.org/2000/svg" role="img" aria-label="Cloudflare">
  <rect width="48" height="48" rx="11" fill="#1F1305"/>
  <path d="M31 30l.6-2a1 1 0 0 0-.98-1.33H15.3a.5.5 0 0 1-.1-.99l16-2.1a5.9 5.9 0 0 0-11.2-1.53A3.6 3.6 0 0 0 14.5 24 4 4 0 0 0 15 32h15.2a.9.9 0 0 0 .8-.6z" fill="#F6821F"/>
  <path d="M34.5 23.6a5 5 0 0 0-.4 0 .3.3 0 0 0-.25.2l-.4 1.4c-.16.55.09.8.6.83l1.9.12a.5.5 0 0 1 .1.99l-2 .27a.9.9 0 0 0-.72.6l-.24.83a.17.17 0 0 0 .16.22h3.4a4 4 0 0 0 .3-7.98z" fill="#FBAD41"/>
</svg>
