<svg viewBox="0 0 48 48" xmlns="http://www.w3.org/2000/svg" role="img" aria-label="GitHub">
  <rect width="48" height="48" rx="11" fill="#161B22"/>
  <path fill="#E6EDF3" d="M24 10a14 14 0 0 0-4.43 27.28c.7.13.96-.3.96-.67v-2.35c-3.9.85-4.72-1.88-4.72-1.88-.64-1.62-1.56-2.05-1.56-2.05-1.27-.87.1-.85.1-.85 1.4.1 2.14 1.44 2.14 1.44 1.25 2.14 3.28 1.52 4.08 1.16.13-.9.49-1.52.88-1.87-3.11-.35-6.38-1.56-6.38-6.92 0-1.53.55-2.78 1.44-3.76-.14-.36-.62-1.79.14-3.72 0 0 1.18-.38 3.85 1.43a13.4 13.4 0 0 1 7 0c2.67-1.81 3.85-1.43 3.85-1.43.76 1.93.28 3.36.14 3.72.9.98 1.44 2.23 1.44 3.76 0 5.38-3.28 6.56-6.4 6.9.5.44.95 1.3.95 2.62v3.88c0 .38.26.81.97.67A14 14 0 0 0 24 10z"/>
</svg>
