<svg viewBox="0 0 48 48" xmlns="http://www.w3.org/2000/svg" role="img" aria-label="OpenAI">
  <rect width="48" height="48" rx="11" fill="#0B0B0B"/>
  <path d="M33.6 21.3a6.1 6.1 0 0 0-.53-5.02 6.18 6.18 0 0 0-6.66-2.96 6.11 6.11 0 0 0-4.61-2.06 6.18 6.18 0 0 0-5.9 4.27 6.11 6.11 0 0 0-4.08 2.96 6.18 6.18 0 0 0 .76 7.24 6.1 6.1 0 0 0 .53 5.02 6.18 6.18 0 0 0 6.66 2.96 6.1 6.1 0 0 0 4.6 2.06 6.18 6.18 0 0 0 5.9-4.28 6.11 6.11 0 0 0 4.09-2.96 6.18 6.18 0 0 0-.76-7.23zm-9.16 12.8a4.58 4.58 0 0 1-2.94-1.06l.14-.08 4.9-2.83a.8.8 0 0 0 .4-.7v-6.9l2.07 1.2a.07.07 0 0 1 .04.06v5.72a4.6 4.6 0 0 1-4.6 4.59zM14.55 29.9a4.58 4.58 0 0 1-.55-3.08l.15.09 4.9 2.83a.8.8 0 0 0 .8 0l5.98-3.45v2.39a.08.08 0 0 1-.03.07l-4.96 2.86a4.6 4.6 0 0 1-6.28-1.68zm-1.29-10.7a4.58 4.58 0 0 1 2.4-2.02v5.82a.8.8 0 0 0 .4.7l5.97 3.44-2.07 1.2a.08.08 0 0 1-.08 0l-4.95-2.86a4.6 4.6 0 0 1-1.68-6.28zm17.02 3.96l-5.98-3.46 2.07-1.19a.08.08 0 0 1 .08 0l4.95 2.85a4.59 4.59 0 0 1-.7 8.28v-5.82a.8.8 0 0 0-.42-.66zm2.06-3.1l-.15-.1-4.89-2.84a.8.8 0 0 0-.8 0l-5.98 3.45v-2.39a.08.08 0 0 1 .03-.07l4.95-2.85a4.59 4.59 0 0 1 6.84 4.76zM19.9 24.9l-2.07-1.2a.08.08 0 0 1-.04-.06v-5.72a4.59 4.59 0 0 1 7.52-3.52l-.14.08-4.9 2.83a.8.8 0 0 0-.4.7l-.02 6.9zm1.12-2.42L24 20.75l2.66 1.54v3.07l-2.66 1.53-2.66-1.53z" fill="#fff"/>
</svg>
